<mxfile host="app.diagrams.net" agent="Mozilla/5.0 (Windows NT 10.0; Win64; x64) AppleWebKit/537.36 (KHTML, like Gecko) Chrome/140.0.0.0 Safari/537.36" version="28.2.5">
  <diagram name="หน้า-1" id="8mpo2KhjY0d5GhI-VJxt">
    <mxGraphModel dx="1758" dy="1855" grid="1" gridSize="10" guides="1" tooltips="1" connect="1" arrows="1" fold="1" page="1" pageScale="1" pageWidth="827" pageHeight="1169" math="0" shadow="0">
      <root>
        <mxCell id="0" />
        <mxCell id="1" parent="0" />
        <mxCell id="2" value="&lt;font style=&quot;font-size: 16px;&quot;&gt;&lt;b&gt;Main Program&lt;/b&gt;&lt;/font&gt;" style="text;html=1;strokeColor=none;fillColor=none;align=center;verticalAlign=middle;whiteSpace=wrap;rounded=0;" vertex="1" parent="1">
          <mxGeometry x="20" y="5" width="160" height="30" as="geometry" />
        </mxCell>
        <mxCell id="wYvTHtJsyfHoaKMdfz4s-115" value="" style="edgeStyle=orthogonalEdgeStyle;rounded=0;orthogonalLoop=1;jettySize=auto;html=1;" edge="1" parent="1" source="5" target="7">
          <mxGeometry relative="1" as="geometry" />
        </mxCell>
        <mxCell id="5" value="กำหนดค่าเริ่มต้น n = 0&lt;br&gt;ประกาศตัวแปร i และ array[100]" style="rounded=0;whiteSpace=wrap;html=1;" vertex="1" parent="1">
          <mxGeometry x="160" y="80" width="240" height="40" as="geometry" />
        </mxCell>
        <mxCell id="wYvTHtJsyfHoaKMdfz4s-121" value="" style="edgeStyle=orthogonalEdgeStyle;rounded=0;orthogonalLoop=1;jettySize=auto;html=1;" edge="1" parent="1" source="7" target="wYvTHtJsyfHoaKMdfz4s-120">
          <mxGeometry relative="1" as="geometry" />
        </mxCell>
        <mxCell id="7" value="แสดงผล &quot;Enter value : &quot;" style="shape=parallelogram;perimeter=parallelogramPerimeter;whiteSpace=wrap;html=1;fixedSize=1;" vertex="1" parent="1">
          <mxGeometry x="160" y="160" width="240" height="40" as="geometry" />
        </mxCell>
        <mxCell id="9" value="รับค่าตัวเลข 1 ตัว&lt;br&gt;เก็บใน array[n]" style="shape=parallelogram;perimeter=parallelogramPerimeter;whiteSpace=wrap;html=1;fixedSize=1;" vertex="1" parent="1">
          <mxGeometry x="160" y="280" width="240" height="40" as="geometry" />
        </mxCell>
        <mxCell id="10" style="edgeStyle=orthogonalEdgeStyle;rounded=0;orthogonalLoop=1;jettySize=auto;html=1;exitX=0.5;exitY=1;exitDx=0;exitDy=0;" edge="1" parent="1" source="9" target="11">
          <mxGeometry relative="1" as="geometry" />
        </mxCell>
        <mxCell id="wYvTHtJsyfHoaKMdfz4s-119" style="edgeStyle=orthogonalEdgeStyle;rounded=0;orthogonalLoop=1;jettySize=auto;html=1;entryX=1;entryY=0.5;entryDx=0;entryDy=0;" edge="1" parent="1" source="11" target="wYvTHtJsyfHoaKMdfz4s-116">
          <mxGeometry relative="1" as="geometry">
            <Array as="points">
              <mxPoint x="400" y="400" />
              <mxPoint x="400" y="685" />
            </Array>
          </mxGeometry>
        </mxCell>
        <mxCell id="11" value="รับค่าสำเร็จหรือไม่" style="rhombus;whiteSpace=wrap;html=1;" vertex="1" parent="1">
          <mxGeometry x="215" y="360" width="130" height="80" as="geometry" />
        </mxCell>
        <mxCell id="15" style="edgeStyle=orthogonalEdgeStyle;rounded=0;orthogonalLoop=1;jettySize=auto;html=1;exitX=0.5;exitY=1;exitDx=0;exitDy=0;" edge="1" parent="1" source="11" target="16">
          <mxGeometry relative="1" as="geometry" />
        </mxCell>
        <mxCell id="16" value="เพิ่มค่า n ขึ้น 1" style="rounded=0;whiteSpace=wrap;html=1;" vertex="1" parent="1">
          <mxGeometry x="220" y="480" width="120" height="40" as="geometry" />
        </mxCell>
        <mxCell id="18" style="edgeStyle=orthogonalEdgeStyle;rounded=0;orthogonalLoop=1;jettySize=auto;html=1;exitX=0.5;exitY=1;exitDx=0;exitDy=0;" edge="1" parent="1" source="16" target="19">
          <mxGeometry relative="1" as="geometry" />
        </mxCell>
        <mxCell id="wYvTHtJsyfHoaKMdfz4s-117" value="" style="edgeStyle=orthogonalEdgeStyle;rounded=0;orthogonalLoop=1;jettySize=auto;html=1;" edge="1" parent="1" source="19" target="wYvTHtJsyfHoaKMdfz4s-116">
          <mxGeometry relative="1" as="geometry" />
        </mxCell>
        <mxCell id="wYvTHtJsyfHoaKMdfz4s-123" style="edgeStyle=orthogonalEdgeStyle;rounded=0;orthogonalLoop=1;jettySize=auto;html=1;entryX=0;entryY=0.5;entryDx=0;entryDy=0;" edge="1" parent="1" source="19" target="wYvTHtJsyfHoaKMdfz4s-120">
          <mxGeometry relative="1" as="geometry">
            <Array as="points">
              <mxPoint x="120" y="600" />
              <mxPoint x="120" y="245" />
            </Array>
          </mxGeometry>
        </mxCell>
        <mxCell id="19" value="ตัวอักษรที่รับมา&lt;br&gt;คือ Enter หรือไม่" style="rhombus;whiteSpace=wrap;html=1;" vertex="1" parent="1">
          <mxGeometry x="209.5" y="560" width="141" height="80" as="geometry" />
        </mxCell>
        <mxCell id="13" value="แสดงผล &quot;Index : &quot;" style="shape=parallelogram;perimeter=parallelogramPerimeter;whiteSpace=wrap;html=1;fixedSize=1;" vertex="1" parent="1">
          <mxGeometry x="160" y="720" width="240" height="40" as="geometry" />
        </mxCell>
        <mxCell id="24" style="edgeStyle=orthogonalEdgeStyle;rounded=0;orthogonalLoop=1;jettySize=auto;html=1;exitX=0.5;exitY=1;exitDx=0;exitDy=0;" edge="1" parent="1" source="13" target="25">
          <mxGeometry relative="1" as="geometry" />
        </mxCell>
        <mxCell id="wYvTHtJsyfHoaKMdfz4s-128" value="" style="edgeStyle=orthogonalEdgeStyle;rounded=0;orthogonalLoop=1;jettySize=auto;html=1;" edge="1" parent="1" source="25" target="wYvTHtJsyfHoaKMdfz4s-127">
          <mxGeometry relative="1" as="geometry" />
        </mxCell>
        <mxCell id="25" value="กำหนด i = 0" style="rounded=0;whiteSpace=wrap;html=1;" vertex="1" parent="1">
          <mxGeometry x="220" y="800" width="120" height="40" as="geometry" />
        </mxCell>
        <mxCell id="wYvTHtJsyfHoaKMdfz4s-125" value="" style="edgeStyle=orthogonalEdgeStyle;rounded=0;orthogonalLoop=1;jettySize=auto;html=1;" edge="1" parent="1" source="27" target="31">
          <mxGeometry relative="1" as="geometry" />
        </mxCell>
        <mxCell id="wYvTHtJsyfHoaKMdfz4s-131" style="edgeStyle=orthogonalEdgeStyle;rounded=0;orthogonalLoop=1;jettySize=auto;html=1;entryX=0.5;entryY=0;entryDx=0;entryDy=0;" edge="1" parent="1" source="27" target="39">
          <mxGeometry relative="1" as="geometry">
            <Array as="points">
              <mxPoint x="400" y="960" />
              <mxPoint x="400" y="1240" />
              <mxPoint x="280" y="1240" />
            </Array>
          </mxGeometry>
        </mxCell>
        <mxCell id="27" value="i &amp;lt; n" style="rhombus;whiteSpace=wrap;html=1;" vertex="1" parent="1">
          <mxGeometry x="240" y="920" width="80" height="80" as="geometry" />
        </mxCell>
        <mxCell id="wYvTHtJsyfHoaKMdfz4s-126" value="" style="edgeStyle=orthogonalEdgeStyle;rounded=0;orthogonalLoop=1;jettySize=auto;html=1;" edge="1" parent="1" source="31" target="35">
          <mxGeometry relative="1" as="geometry" />
        </mxCell>
        <mxCell id="31" value="แสดงค่า i" style="shape=parallelogram;perimeter=parallelogramPerimeter;whiteSpace=wrap;html=1;fixedSize=1;" vertex="1" parent="1">
          <mxGeometry x="220" y="1040" width="120" height="40" as="geometry" />
        </mxCell>
        <mxCell id="wYvTHtJsyfHoaKMdfz4s-130" style="edgeStyle=orthogonalEdgeStyle;rounded=0;orthogonalLoop=1;jettySize=auto;html=1;entryX=0;entryY=0.5;entryDx=0;entryDy=0;" edge="1" parent="1" source="35" target="wYvTHtJsyfHoaKMdfz4s-127">
          <mxGeometry relative="1" as="geometry">
            <Array as="points">
              <mxPoint x="280" y="1200" />
              <mxPoint x="160" y="1200" />
              <mxPoint x="160" y="885" />
            </Array>
          </mxGeometry>
        </mxCell>
        <mxCell id="35" value="เพิ่มค่า i ขึ้น 1" style="rounded=0;whiteSpace=wrap;html=1;" vertex="1" parent="1">
          <mxGeometry x="220" y="1120" width="120" height="40" as="geometry" />
        </mxCell>
        <mxCell id="39" value="แสดงผล &quot;Array : &quot;" style="shape=parallelogram;perimeter=parallelogramPerimeter;whiteSpace=wrap;html=1;fixedSize=1;" vertex="1" parent="1">
          <mxGeometry x="220" y="1280" width="120" height="40" as="geometry" />
        </mxCell>
        <mxCell id="40" style="edgeStyle=orthogonalEdgeStyle;rounded=0;orthogonalLoop=1;jettySize=auto;html=1;exitX=0.5;exitY=1;exitDx=0;exitDy=0;" edge="1" parent="1" source="39" target="41">
          <mxGeometry relative="1" as="geometry" />
        </mxCell>
        <mxCell id="wYvTHtJsyfHoaKMdfz4s-135" value="" style="edgeStyle=orthogonalEdgeStyle;rounded=0;orthogonalLoop=1;jettySize=auto;html=1;" edge="1" parent="1" source="41" target="wYvTHtJsyfHoaKMdfz4s-134">
          <mxGeometry relative="1" as="geometry" />
        </mxCell>
        <mxCell id="41" value="กำหนด i = 0" style="rounded=0;whiteSpace=wrap;html=1;" vertex="1" parent="1">
          <mxGeometry x="220" y="1360" width="120" height="40" as="geometry" />
        </mxCell>
        <mxCell id="wYvTHtJsyfHoaKMdfz4s-132" value="" style="edgeStyle=orthogonalEdgeStyle;rounded=0;orthogonalLoop=1;jettySize=auto;html=1;" edge="1" parent="1" source="43" target="47">
          <mxGeometry relative="1" as="geometry" />
        </mxCell>
        <mxCell id="wYvTHtJsyfHoaKMdfz4s-138" style="edgeStyle=orthogonalEdgeStyle;rounded=0;orthogonalLoop=1;jettySize=auto;html=1;" edge="1" parent="1" source="43" target="55">
          <mxGeometry relative="1" as="geometry">
            <Array as="points">
              <mxPoint x="400" y="1520" />
              <mxPoint x="400" y="1800" />
              <mxPoint x="280" y="1800" />
            </Array>
          </mxGeometry>
        </mxCell>
        <mxCell id="43" value="i &amp;lt; n" style="rhombus;whiteSpace=wrap;html=1;" vertex="1" parent="1">
          <mxGeometry x="240" y="1480" width="80" height="80" as="geometry" />
        </mxCell>
        <mxCell id="wYvTHtJsyfHoaKMdfz4s-133" value="" style="edgeStyle=orthogonalEdgeStyle;rounded=0;orthogonalLoop=1;jettySize=auto;html=1;" edge="1" parent="1" source="47" target="51">
          <mxGeometry relative="1" as="geometry" />
        </mxCell>
        <mxCell id="47" value="แสดงค่า array[i]" style="shape=parallelogram;perimeter=parallelogramPerimeter;whiteSpace=wrap;html=1;fixedSize=1;" vertex="1" parent="1">
          <mxGeometry x="220" y="1600" width="120" height="40" as="geometry" />
        </mxCell>
        <mxCell id="wYvTHtJsyfHoaKMdfz4s-137" style="edgeStyle=orthogonalEdgeStyle;rounded=0;orthogonalLoop=1;jettySize=auto;html=1;entryX=0;entryY=0.5;entryDx=0;entryDy=0;" edge="1" parent="1" source="51" target="wYvTHtJsyfHoaKMdfz4s-134">
          <mxGeometry relative="1" as="geometry">
            <Array as="points">
              <mxPoint x="280" y="1760" />
              <mxPoint x="160" y="1760" />
              <mxPoint x="160" y="1445" />
            </Array>
          </mxGeometry>
        </mxCell>
        <mxCell id="51" value="เพิ่มค่า i ขึ้น 1" style="rounded=0;whiteSpace=wrap;html=1;" vertex="1" parent="1">
          <mxGeometry x="220" y="1680" width="120" height="40" as="geometry" />
        </mxCell>
        <mxCell id="55" value="เรียกใช้ฟังก์ชัน minnum&lt;br&gt;แสดงผลค่าที่ได้" style="shape=process;whiteSpace=wrap;html=1;backgroundOutline=1;" vertex="1" parent="1">
          <mxGeometry x="160" y="1840" width="240" height="40" as="geometry" />
        </mxCell>
        <mxCell id="56" style="edgeStyle=orthogonalEdgeStyle;rounded=0;orthogonalLoop=1;jettySize=auto;html=1;exitX=0.5;exitY=1;exitDx=0;exitDy=0;" edge="1" parent="1" source="55" target="57">
          <mxGeometry relative="1" as="geometry" />
        </mxCell>
        <mxCell id="wYvTHtJsyfHoaKMdfz4s-140" value="" style="edgeStyle=orthogonalEdgeStyle;rounded=0;orthogonalLoop=1;jettySize=auto;html=1;" edge="1" parent="1" source="57" target="wYvTHtJsyfHoaKMdfz4s-139">
          <mxGeometry relative="1" as="geometry" />
        </mxCell>
        <mxCell id="57" value="เรียกใช้ฟังก์ชัน maxnum&lt;br&gt;แสดงผลค่าที่ได้" style="shape=process;whiteSpace=wrap;html=1;backgroundOutline=1;" vertex="1" parent="1">
          <mxGeometry x="155" y="1920" width="250" height="40" as="geometry" />
        </mxCell>
        <mxCell id="60" value="&lt;b&gt;&lt;font style=&quot;font-size: 16px;&quot;&gt;Function: minnum&lt;/font&gt;&lt;/b&gt;" style="text;html=1;strokeColor=none;fillColor=none;align=center;verticalAlign=middle;whiteSpace=wrap;rounded=0;" vertex="1" parent="1">
          <mxGeometry x="760" y="10" width="160" height="30" as="geometry" />
        </mxCell>
        <mxCell id="87" value="&lt;b&gt;&lt;font style=&quot;font-size: 16px;&quot;&gt;Function: maxnum&lt;/font&gt;&lt;/b&gt;" style="text;html=1;strokeColor=none;fillColor=none;align=center;verticalAlign=middle;whiteSpace=wrap;rounded=0;" vertex="1" parent="1">
          <mxGeometry x="1280" y="10" width="160" height="30" as="geometry" />
        </mxCell>
        <mxCell id="90" value="รับค่า array และ n" style="shape=parallelogram;perimeter=parallelogramPerimeter;whiteSpace=wrap;html=1;fixedSize=1;" vertex="1" parent="1">
          <mxGeometry x="1140" y="80" width="120" height="40" as="geometry" />
        </mxCell>
        <mxCell id="91" style="edgeStyle=orthogonalEdgeStyle;rounded=0;orthogonalLoop=1;jettySize=auto;html=1;exitX=0.5;exitY=1;exitDx=0;exitDy=0;" edge="1" parent="1" source="90" target="92">
          <mxGeometry relative="1" as="geometry" />
        </mxCell>
        <mxCell id="92" value="กำหนด max = array[0]" style="rounded=0;whiteSpace=wrap;html=1;" vertex="1" parent="1">
          <mxGeometry x="1120" y="160" width="160" height="40" as="geometry" />
        </mxCell>
        <mxCell id="93" style="edgeStyle=orthogonalEdgeStyle;rounded=0;orthogonalLoop=1;jettySize=auto;html=1;exitX=0.5;exitY=1;exitDx=0;exitDy=0;" edge="1" parent="1" source="92" target="94">
          <mxGeometry relative="1" as="geometry" />
        </mxCell>
        <mxCell id="wYvTHtJsyfHoaKMdfz4s-176" value="" style="edgeStyle=orthogonalEdgeStyle;rounded=0;orthogonalLoop=1;jettySize=auto;html=1;" edge="1" parent="1" source="94" target="wYvTHtJsyfHoaKMdfz4s-175">
          <mxGeometry relative="1" as="geometry" />
        </mxCell>
        <mxCell id="94" value="กำหนด i = 1" style="rounded=0;whiteSpace=wrap;html=1;" vertex="1" parent="1">
          <mxGeometry x="1140" y="240" width="120" height="40" as="geometry" />
        </mxCell>
        <mxCell id="wYvTHtJsyfHoaKMdfz4s-178" value="" style="edgeStyle=orthogonalEdgeStyle;rounded=0;orthogonalLoop=1;jettySize=auto;html=1;" edge="1" parent="1" source="96" target="100">
          <mxGeometry relative="1" as="geometry" />
        </mxCell>
        <mxCell id="wYvTHtJsyfHoaKMdfz4s-184" style="edgeStyle=orthogonalEdgeStyle;rounded=0;orthogonalLoop=1;jettySize=auto;html=1;entryX=0.5;entryY=0;entryDx=0;entryDy=0;" edge="1" parent="1" source="96" target="102">
          <mxGeometry relative="1" as="geometry">
            <Array as="points">
              <mxPoint x="1360" y="400" />
              <mxPoint x="1360" y="840" />
              <mxPoint x="1200" y="840" />
            </Array>
          </mxGeometry>
        </mxCell>
        <mxCell id="96" value="i &amp;lt; n" style="rhombus;whiteSpace=wrap;html=1;" vertex="1" parent="1">
          <mxGeometry x="1160" y="360" width="80" height="80" as="geometry" />
        </mxCell>
        <mxCell id="wYvTHtJsyfHoaKMdfz4s-179" value="" style="edgeStyle=orthogonalEdgeStyle;rounded=0;orthogonalLoop=1;jettySize=auto;html=1;" edge="1" parent="1" source="100" target="105">
          <mxGeometry relative="1" as="geometry" />
        </mxCell>
        <mxCell id="wYvTHtJsyfHoaKMdfz4s-189" style="edgeStyle=orthogonalEdgeStyle;rounded=0;orthogonalLoop=1;jettySize=auto;html=1;entryX=1;entryY=0.5;entryDx=0;entryDy=0;" edge="1" parent="1" source="100" target="wYvTHtJsyfHoaKMdfz4s-180">
          <mxGeometry relative="1" as="geometry">
            <Array as="points">
              <mxPoint x="1320" y="520" />
              <mxPoint x="1320" y="685" />
            </Array>
          </mxGeometry>
        </mxCell>
        <mxCell id="100" value="array[i] &amp;gt; max" style="rhombus;whiteSpace=wrap;html=1;" vertex="1" parent="1">
          <mxGeometry x="1150" y="480" width="100" height="80" as="geometry" />
        </mxCell>
        <mxCell id="wYvTHtJsyfHoaKMdfz4s-181" value="" style="edgeStyle=orthogonalEdgeStyle;rounded=0;orthogonalLoop=1;jettySize=auto;html=1;" edge="1" parent="1" source="105" target="wYvTHtJsyfHoaKMdfz4s-180">
          <mxGeometry relative="1" as="geometry" />
        </mxCell>
        <mxCell id="105" value="max = array[i]" style="rounded=0;whiteSpace=wrap;html=1;" vertex="1" parent="1">
          <mxGeometry x="1140" y="600" width="120" height="40" as="geometry" />
        </mxCell>
        <mxCell id="wYvTHtJsyfHoaKMdfz4s-183" style="edgeStyle=orthogonalEdgeStyle;rounded=0;orthogonalLoop=1;jettySize=auto;html=1;entryX=0;entryY=0.5;entryDx=0;entryDy=0;" edge="1" parent="1" source="108" target="wYvTHtJsyfHoaKMdfz4s-175">
          <mxGeometry relative="1" as="geometry">
            <Array as="points">
              <mxPoint x="1200" y="800" />
              <mxPoint x="1080" y="800" />
              <mxPoint x="1080" y="325" />
            </Array>
          </mxGeometry>
        </mxCell>
        <mxCell id="108" value="เพิ่มค่า i ขึ้น 1" style="rounded=0;whiteSpace=wrap;html=1;" vertex="1" parent="1">
          <mxGeometry x="1140" y="720" width="120" height="40" as="geometry" />
        </mxCell>
        <mxCell id="wYvTHtJsyfHoaKMdfz4s-191" value="" style="edgeStyle=orthogonalEdgeStyle;rounded=0;orthogonalLoop=1;jettySize=auto;html=1;" edge="1" parent="1" source="102" target="wYvTHtJsyfHoaKMdfz4s-190">
          <mxGeometry relative="1" as="geometry" />
        </mxCell>
        <mxCell id="102" value="คืนค่า max" style="shape=parallelogram;perimeter=parallelogramPerimeter;whiteSpace=wrap;html=1;fixedSize=1;" vertex="1" parent="1">
          <mxGeometry x="1140" y="880" width="120" height="40" as="geometry" />
        </mxCell>
        <mxCell id="wYvTHtJsyfHoaKMdfz4s-114" value="" style="edgeStyle=orthogonalEdgeStyle;rounded=0;orthogonalLoop=1;jettySize=auto;html=1;" edge="1" parent="1" source="wYvTHtJsyfHoaKMdfz4s-113" target="5">
          <mxGeometry relative="1" as="geometry" />
        </mxCell>
        <mxCell id="wYvTHtJsyfHoaKMdfz4s-113" value="Start" style="ellipse;whiteSpace=wrap;html=1;" vertex="1" parent="1">
          <mxGeometry x="220" width="120" height="40" as="geometry" />
        </mxCell>
        <mxCell id="wYvTHtJsyfHoaKMdfz4s-118" value="" style="edgeStyle=orthogonalEdgeStyle;rounded=0;orthogonalLoop=1;jettySize=auto;html=1;" edge="1" parent="1" source="wYvTHtJsyfHoaKMdfz4s-116" target="13">
          <mxGeometry relative="1" as="geometry" />
        </mxCell>
        <mxCell id="wYvTHtJsyfHoaKMdfz4s-116" value="" style="ellipse;whiteSpace=wrap;html=1;aspect=fixed;" vertex="1" parent="1">
          <mxGeometry x="275" y="680" width="10" height="10" as="geometry" />
        </mxCell>
        <mxCell id="wYvTHtJsyfHoaKMdfz4s-120" value="" style="ellipse;whiteSpace=wrap;html=1;aspect=fixed;" vertex="1" parent="1">
          <mxGeometry x="275" y="240" width="10" height="10" as="geometry" />
        </mxCell>
        <mxCell id="wYvTHtJsyfHoaKMdfz4s-124" style="edgeStyle=orthogonalEdgeStyle;rounded=0;orthogonalLoop=1;jettySize=auto;html=1;entryX=0.5;entryY=0;entryDx=0;entryDy=0;" edge="1" parent="1" source="wYvTHtJsyfHoaKMdfz4s-120" target="9">
          <mxGeometry relative="1" as="geometry" />
        </mxCell>
        <mxCell id="wYvTHtJsyfHoaKMdfz4s-129" value="" style="edgeStyle=orthogonalEdgeStyle;rounded=0;orthogonalLoop=1;jettySize=auto;html=1;" edge="1" parent="1" source="wYvTHtJsyfHoaKMdfz4s-127" target="27">
          <mxGeometry relative="1" as="geometry" />
        </mxCell>
        <mxCell id="wYvTHtJsyfHoaKMdfz4s-127" value="" style="ellipse;whiteSpace=wrap;html=1;aspect=fixed;" vertex="1" parent="1">
          <mxGeometry x="275" y="880" width="10" height="10" as="geometry" />
        </mxCell>
        <mxCell id="wYvTHtJsyfHoaKMdfz4s-136" value="" style="edgeStyle=orthogonalEdgeStyle;rounded=0;orthogonalLoop=1;jettySize=auto;html=1;" edge="1" parent="1" source="wYvTHtJsyfHoaKMdfz4s-134" target="43">
          <mxGeometry relative="1" as="geometry" />
        </mxCell>
        <mxCell id="wYvTHtJsyfHoaKMdfz4s-134" value="" style="ellipse;whiteSpace=wrap;html=1;aspect=fixed;" vertex="1" parent="1">
          <mxGeometry x="275" y="1440" width="10" height="10" as="geometry" />
        </mxCell>
        <mxCell id="wYvTHtJsyfHoaKMdfz4s-139" value="Stop" style="ellipse;whiteSpace=wrap;html=1;" vertex="1" parent="1">
          <mxGeometry x="220" y="2000" width="120" height="40" as="geometry" />
        </mxCell>
        <mxCell id="wYvTHtJsyfHoaKMdfz4s-141" value="TRUE" style="text;html=1;align=center;verticalAlign=middle;whiteSpace=wrap;rounded=0;" vertex="1" parent="1">
          <mxGeometry x="280" y="640" width="60" height="30" as="geometry" />
        </mxCell>
        <mxCell id="wYvTHtJsyfHoaKMdfz4s-142" value="FALSE" style="text;html=1;align=center;verticalAlign=middle;whiteSpace=wrap;rounded=0;" vertex="1" parent="1">
          <mxGeometry x="149.5" y="570" width="60" height="30" as="geometry" />
        </mxCell>
        <mxCell id="wYvTHtJsyfHoaKMdfz4s-143" value="TRUE" style="text;html=1;align=center;verticalAlign=middle;whiteSpace=wrap;rounded=0;" vertex="1" parent="1">
          <mxGeometry x="280" y="440" width="60" height="30" as="geometry" />
        </mxCell>
        <mxCell id="wYvTHtJsyfHoaKMdfz4s-144" value="FALSE" style="text;html=1;align=center;verticalAlign=middle;whiteSpace=wrap;rounded=0;" vertex="1" parent="1">
          <mxGeometry x="340" y="370" width="60" height="30" as="geometry" />
        </mxCell>
        <mxCell id="wYvTHtJsyfHoaKMdfz4s-145" value="TRUE" style="text;html=1;align=center;verticalAlign=middle;whiteSpace=wrap;rounded=0;" vertex="1" parent="1">
          <mxGeometry x="280" y="1000" width="60" height="30" as="geometry" />
        </mxCell>
        <mxCell id="wYvTHtJsyfHoaKMdfz4s-146" value="FALSE" style="text;html=1;align=center;verticalAlign=middle;whiteSpace=wrap;rounded=0;" vertex="1" parent="1">
          <mxGeometry x="320" y="930" width="60" height="30" as="geometry" />
        </mxCell>
        <mxCell id="wYvTHtJsyfHoaKMdfz4s-148" value="TRUE" style="text;html=1;align=center;verticalAlign=middle;whiteSpace=wrap;rounded=0;" vertex="1" parent="1">
          <mxGeometry x="280" y="1560" width="60" height="30" as="geometry" />
        </mxCell>
        <mxCell id="wYvTHtJsyfHoaKMdfz4s-149" value="FALSE" style="text;html=1;align=center;verticalAlign=middle;whiteSpace=wrap;rounded=0;" vertex="1" parent="1">
          <mxGeometry x="320" y="1490" width="60" height="30" as="geometry" />
        </mxCell>
        <mxCell id="63" value="รับค่า array และ n" style="shape=parallelogram;perimeter=parallelogramPerimeter;whiteSpace=wrap;html=1;fixedSize=1;" vertex="1" parent="1">
          <mxGeometry x="620" y="80" width="120" height="40" as="geometry" />
        </mxCell>
        <mxCell id="64" style="edgeStyle=orthogonalEdgeStyle;rounded=0;orthogonalLoop=1;jettySize=auto;html=1;exitX=0.5;exitY=1;exitDx=0;exitDy=0;" edge="1" parent="1" source="63" target="65">
          <mxGeometry relative="1" as="geometry" />
        </mxCell>
        <mxCell id="65" value="กำหนด min = array[0]" style="rounded=0;whiteSpace=wrap;html=1;" vertex="1" parent="1">
          <mxGeometry x="600" y="160" width="160" height="40" as="geometry" />
        </mxCell>
        <mxCell id="66" style="edgeStyle=orthogonalEdgeStyle;rounded=0;orthogonalLoop=1;jettySize=auto;html=1;exitX=0.5;exitY=1;exitDx=0;exitDy=0;" edge="1" parent="1" source="65" target="67">
          <mxGeometry relative="1" as="geometry" />
        </mxCell>
        <mxCell id="wYvTHtJsyfHoaKMdfz4s-155" value="" style="edgeStyle=orthogonalEdgeStyle;rounded=0;orthogonalLoop=1;jettySize=auto;html=1;" edge="1" parent="1" source="67" target="wYvTHtJsyfHoaKMdfz4s-154">
          <mxGeometry relative="1" as="geometry" />
        </mxCell>
        <mxCell id="67" value="กำหนด i = 1" style="rounded=0;whiteSpace=wrap;html=1;" vertex="1" parent="1">
          <mxGeometry x="620" y="240" width="120" height="40" as="geometry" />
        </mxCell>
        <mxCell id="wYvTHtJsyfHoaKMdfz4s-153" value="" style="edgeStyle=orthogonalEdgeStyle;rounded=0;orthogonalLoop=1;jettySize=auto;html=1;" edge="1" parent="1" source="69" target="73">
          <mxGeometry relative="1" as="geometry" />
        </mxCell>
        <mxCell id="wYvTHtJsyfHoaKMdfz4s-157" style="edgeStyle=orthogonalEdgeStyle;rounded=0;orthogonalLoop=1;jettySize=auto;html=1;entryX=0.5;entryY=0;entryDx=0;entryDy=0;" edge="1" parent="1" source="69" target="75">
          <mxGeometry relative="1" as="geometry">
            <mxPoint x="840" y="650" as="targetPoint" />
            <Array as="points">
              <mxPoint x="840" y="400" />
              <mxPoint x="840" y="840" />
              <mxPoint x="680" y="840" />
            </Array>
          </mxGeometry>
        </mxCell>
        <mxCell id="69" value="i &amp;lt; n" style="rhombus;whiteSpace=wrap;html=1;" vertex="1" parent="1">
          <mxGeometry x="640" y="360" width="80" height="80" as="geometry" />
        </mxCell>
        <mxCell id="wYvTHtJsyfHoaKMdfz4s-152" value="" style="edgeStyle=orthogonalEdgeStyle;rounded=0;orthogonalLoop=1;jettySize=auto;html=1;" edge="1" parent="1" source="73" target="78">
          <mxGeometry relative="1" as="geometry" />
        </mxCell>
        <mxCell id="wYvTHtJsyfHoaKMdfz4s-162" style="edgeStyle=orthogonalEdgeStyle;rounded=0;orthogonalLoop=1;jettySize=auto;html=1;entryX=1;entryY=0.5;entryDx=0;entryDy=0;" edge="1" parent="1" source="73" target="wYvTHtJsyfHoaKMdfz4s-159">
          <mxGeometry relative="1" as="geometry">
            <Array as="points">
              <mxPoint x="800" y="520" />
              <mxPoint x="800" y="685" />
            </Array>
          </mxGeometry>
        </mxCell>
        <mxCell id="73" value="array[i] &amp;lt; min" style="rhombus;whiteSpace=wrap;html=1;" vertex="1" parent="1">
          <mxGeometry x="630" y="480" width="100" height="80" as="geometry" />
        </mxCell>
        <mxCell id="wYvTHtJsyfHoaKMdfz4s-160" value="" style="edgeStyle=orthogonalEdgeStyle;rounded=0;orthogonalLoop=1;jettySize=auto;html=1;" edge="1" parent="1" source="78" target="wYvTHtJsyfHoaKMdfz4s-159">
          <mxGeometry relative="1" as="geometry" />
        </mxCell>
        <mxCell id="78" value="min = array[i]" style="rounded=0;whiteSpace=wrap;html=1;" vertex="1" parent="1">
          <mxGeometry x="620" y="600" width="120" height="40" as="geometry" />
        </mxCell>
        <mxCell id="wYvTHtJsyfHoaKMdfz4s-163" style="edgeStyle=orthogonalEdgeStyle;rounded=0;orthogonalLoop=1;jettySize=auto;html=1;entryX=0;entryY=0.5;entryDx=0;entryDy=0;" edge="1" parent="1" source="81" target="wYvTHtJsyfHoaKMdfz4s-154">
          <mxGeometry relative="1" as="geometry">
            <Array as="points">
              <mxPoint x="680" y="800" />
              <mxPoint x="560" y="800" />
              <mxPoint x="560" y="325" />
            </Array>
          </mxGeometry>
        </mxCell>
        <mxCell id="81" value="เพิ่มค่า i ขึ้น 1" style="rounded=0;whiteSpace=wrap;html=1;" vertex="1" parent="1">
          <mxGeometry x="620" y="720" width="120" height="40" as="geometry" />
        </mxCell>
        <mxCell id="wYvTHtJsyfHoaKMdfz4s-165" value="" style="edgeStyle=orthogonalEdgeStyle;rounded=0;orthogonalLoop=1;jettySize=auto;html=1;" edge="1" parent="1" source="75" target="wYvTHtJsyfHoaKMdfz4s-164">
          <mxGeometry relative="1" as="geometry" />
        </mxCell>
        <mxCell id="75" value="คืนค่า min" style="shape=parallelogram;perimeter=parallelogramPerimeter;whiteSpace=wrap;html=1;fixedSize=1;" vertex="1" parent="1">
          <mxGeometry x="620" y="880" width="120" height="40" as="geometry" />
        </mxCell>
        <mxCell id="wYvTHtJsyfHoaKMdfz4s-151" value="" style="edgeStyle=orthogonalEdgeStyle;rounded=0;orthogonalLoop=1;jettySize=auto;html=1;" edge="1" parent="1" source="wYvTHtJsyfHoaKMdfz4s-150" target="63">
          <mxGeometry relative="1" as="geometry" />
        </mxCell>
        <mxCell id="wYvTHtJsyfHoaKMdfz4s-150" value="Start" style="ellipse;whiteSpace=wrap;html=1;" vertex="1" parent="1">
          <mxGeometry x="620" width="120" height="40" as="geometry" />
        </mxCell>
        <mxCell id="wYvTHtJsyfHoaKMdfz4s-156" value="" style="edgeStyle=orthogonalEdgeStyle;rounded=0;orthogonalLoop=1;jettySize=auto;html=1;" edge="1" parent="1" source="wYvTHtJsyfHoaKMdfz4s-154" target="69">
          <mxGeometry relative="1" as="geometry" />
        </mxCell>
        <mxCell id="wYvTHtJsyfHoaKMdfz4s-154" value="" style="ellipse;whiteSpace=wrap;html=1;aspect=fixed;" vertex="1" parent="1">
          <mxGeometry x="675" y="320" width="10" height="10" as="geometry" />
        </mxCell>
        <mxCell id="wYvTHtJsyfHoaKMdfz4s-161" value="" style="edgeStyle=orthogonalEdgeStyle;rounded=0;orthogonalLoop=1;jettySize=auto;html=1;" edge="1" parent="1" source="wYvTHtJsyfHoaKMdfz4s-159" target="81">
          <mxGeometry relative="1" as="geometry" />
        </mxCell>
        <mxCell id="wYvTHtJsyfHoaKMdfz4s-159" value="" style="ellipse;whiteSpace=wrap;html=1;aspect=fixed;" vertex="1" parent="1">
          <mxGeometry x="675" y="680" width="10" height="10" as="geometry" />
        </mxCell>
        <mxCell id="wYvTHtJsyfHoaKMdfz4s-164" value="Stop" style="ellipse;whiteSpace=wrap;html=1;" vertex="1" parent="1">
          <mxGeometry x="620" y="960" width="120" height="40" as="geometry" />
        </mxCell>
        <mxCell id="wYvTHtJsyfHoaKMdfz4s-166" value="TRUE" style="text;html=1;align=center;verticalAlign=middle;whiteSpace=wrap;rounded=0;" vertex="1" parent="1">
          <mxGeometry x="680" y="440" width="60" height="30" as="geometry" />
        </mxCell>
        <mxCell id="wYvTHtJsyfHoaKMdfz4s-167" value="FALSE" style="text;html=1;align=center;verticalAlign=middle;whiteSpace=wrap;rounded=0;" vertex="1" parent="1">
          <mxGeometry x="720" y="370" width="60" height="30" as="geometry" />
        </mxCell>
        <mxCell id="wYvTHtJsyfHoaKMdfz4s-168" value="TRUE" style="text;html=1;align=center;verticalAlign=middle;whiteSpace=wrap;rounded=0;" vertex="1" parent="1">
          <mxGeometry x="680" y="560" width="60" height="30" as="geometry" />
        </mxCell>
        <mxCell id="wYvTHtJsyfHoaKMdfz4s-169" value="FALSE" style="text;html=1;align=center;verticalAlign=middle;whiteSpace=wrap;rounded=0;" vertex="1" parent="1">
          <mxGeometry x="730" y="490" width="60" height="30" as="geometry" />
        </mxCell>
        <mxCell id="wYvTHtJsyfHoaKMdfz4s-174" value="" style="edgeStyle=orthogonalEdgeStyle;rounded=0;orthogonalLoop=1;jettySize=auto;html=1;" edge="1" parent="1" source="wYvTHtJsyfHoaKMdfz4s-173" target="90">
          <mxGeometry relative="1" as="geometry" />
        </mxCell>
        <mxCell id="wYvTHtJsyfHoaKMdfz4s-173" value="Start" style="ellipse;whiteSpace=wrap;html=1;" vertex="1" parent="1">
          <mxGeometry x="1140" width="120" height="40" as="geometry" />
        </mxCell>
        <mxCell id="wYvTHtJsyfHoaKMdfz4s-177" value="" style="edgeStyle=orthogonalEdgeStyle;rounded=0;orthogonalLoop=1;jettySize=auto;html=1;" edge="1" parent="1" source="wYvTHtJsyfHoaKMdfz4s-175" target="96">
          <mxGeometry relative="1" as="geometry" />
        </mxCell>
        <mxCell id="wYvTHtJsyfHoaKMdfz4s-175" value="" style="ellipse;whiteSpace=wrap;html=1;aspect=fixed;" vertex="1" parent="1">
          <mxGeometry x="1195" y="320" width="10" height="10" as="geometry" />
        </mxCell>
        <mxCell id="wYvTHtJsyfHoaKMdfz4s-182" value="" style="edgeStyle=orthogonalEdgeStyle;rounded=0;orthogonalLoop=1;jettySize=auto;html=1;" edge="1" parent="1" source="wYvTHtJsyfHoaKMdfz4s-180" target="108">
          <mxGeometry relative="1" as="geometry" />
        </mxCell>
        <mxCell id="wYvTHtJsyfHoaKMdfz4s-180" value="" style="ellipse;whiteSpace=wrap;html=1;aspect=fixed;" vertex="1" parent="1">
          <mxGeometry x="1195" y="680" width="10" height="10" as="geometry" />
        </mxCell>
        <mxCell id="wYvTHtJsyfHoaKMdfz4s-185" value="TRUE" style="text;html=1;align=center;verticalAlign=middle;whiteSpace=wrap;rounded=0;" vertex="1" parent="1">
          <mxGeometry x="1200" y="440" width="60" height="30" as="geometry" />
        </mxCell>
        <mxCell id="wYvTHtJsyfHoaKMdfz4s-186" value="FALSE" style="text;html=1;align=center;verticalAlign=middle;whiteSpace=wrap;rounded=0;" vertex="1" parent="1">
          <mxGeometry x="1241" y="370" width="60" height="30" as="geometry" />
        </mxCell>
        <mxCell id="wYvTHtJsyfHoaKMdfz4s-187" value="TRUE" style="text;html=1;align=center;verticalAlign=middle;whiteSpace=wrap;rounded=0;" vertex="1" parent="1">
          <mxGeometry x="1201" y="560" width="60" height="30" as="geometry" />
        </mxCell>
        <mxCell id="wYvTHtJsyfHoaKMdfz4s-188" value="FALSE" style="text;html=1;align=center;verticalAlign=middle;whiteSpace=wrap;rounded=0;" vertex="1" parent="1">
          <mxGeometry x="1250" y="490" width="60" height="30" as="geometry" />
        </mxCell>
        <mxCell id="wYvTHtJsyfHoaKMdfz4s-190" value="Stop" style="ellipse;whiteSpace=wrap;html=1;" vertex="1" parent="1">
          <mxGeometry x="1140" y="960" width="120" height="40" as="geometry" />
        </mxCell>
      </root>
    </mxGraphModel>
  </diagram>
</mxfile>
